<?xml version="1.0" encoding="UTF-8"?>
<svg width="24" height="24" viewBox="0 0 24 24" xmlns="http://www.w3.org/2000/svg">
  <!-- 背景圆形 -->
  <circle cx="12" cy="12" r="11" fill="#daa520" stroke="#b8860b" stroke-width="1"/>
  
  <!-- 莲花图案 -->
  <g transform="translate(12, 12)">
    <!-- 莲花花瓣 -->
    <ellipse cx="0" cy="-6" rx="2" ry="4" fill="#ffffff" opacity="0.9" transform="rotate(0)"/>
    <ellipse cx="0" cy="-6" rx="2" ry="4" fill="#ffffff" opacity="0.9" transform="rotate(45)"/>
    <ellipse cx="0" cy="-6" rx="2" ry="4" fill="#ffffff" opacity="0.9" transform="rotate(90)"/>
    <ellipse cx="0" cy="-6" rx="2" ry="4" fill="#ffffff" opacity="0.9" transform="rotate(135)"/>
    <ellipse cx="0" cy="-6" rx="2" ry="4" fill="#ffffff" opacity="0.9" transform="rotate(180)"/>
    <ellipse cx="0" cy="-6" rx="2" ry="4" fill="#ffffff" opacity="0.9" transform="rotate(225)"/>
    <ellipse cx="0" cy="-6" rx="2" ry="4" fill="#ffffff" opacity="0.9" transform="rotate(270)"/>
    <ellipse cx="0" cy="-6" rx="2" ry="4" fill="#ffffff" opacity="0.9" transform="rotate(315)"/>
    
    <!-- 莲花中心 -->
    <circle cx="0" cy="0" r="3" fill="#ffd700"/>
    <circle cx="0" cy="0" r="1.5" fill="#ff6347"/>
  </g>
  
  <!-- 智慧光芒 -->
  <g transform="translate(12, 12)">
    <line x1="0" y1="-9" x2="0" y2="-7" stroke="#ffffff" stroke-width="1" opacity="0.8"/>
    <line x1="6.4" y1="-6.4" x2="5.7" y2="-5.7" stroke="#ffffff" stroke-width="1" opacity="0.8"/>
    <line x1="9" y1="0" x2="7" y2="0" stroke="#ffffff" stroke-width="1" opacity="0.8"/>
    <line x1="6.4" y1="6.4" x2="5.7" y2="5.7" stroke="#ffffff" stroke-width="1" opacity="0.8"/>
    <line x1="0" y1="9" x2="0" y2="7" stroke="#ffffff" stroke-width="1" opacity="0.8"/>
    <line x1="-6.4" y1="6.4" x2="-5.7" y2="5.7" stroke="#ffffff" stroke-width="1" opacity="0.8"/>
    <line x1="-9" y1="0" x2="-7" y2="0" stroke="#ffffff" stroke-width="1" opacity="0.8"/>
    <line x1="-6.4" y1="-6.4" x2="-5.7" y2="-5.7" stroke="#ffffff" stroke-width="1" opacity="0.8"/>
  </g>
</svg>